Coordinates
version=1
nRows=20
nColumns=38
inDegrees=no

Units are S.I. units (second, meters, Newtons, ...)
If the header above contains a line with 'inDegrees', this indicates whether rotational values are in degrees (yes) or radians (no).

endheader
time	pelvis_tilt	pelvis_list	pelvis_rotation	pelvis_tx	pelvis_ty	pelvis_tz	hip_flexion_r	hip_adduction_r	hip_rotation_r	knee_angle_r	ankle_angle_r	subtalar_angle_r	mtp_angle_r	hip_flexion_l	hip_adduction_l	hip_rotation_l	knee_angle_l	ankle_angle_l	subtalar_angle_l	mtp_angle_l	lumbar_extension	lumbar_bending	lumbar_rotation	arm_flex_r	arm_add_r	arm_rot_r	elbow_flex_r	pro_sup_r	wrist_flex_r	wrist_dev_r	arm_flex_l	arm_add_l	arm_rot_l	elbow_flex_l	pro_sup_l	wrist_flex_l	wrist_dev_l
0	2.7464	1.42821	-1.19243	0.715666	-0.227656	0.938971	-0.0846014	0.0194734	0.147299	0.418113	-0.115588	0	0	-0.16366	-0.105055	-0.0956154	0.235459	-0.163585	0	0	-0.219567	0.127059	0.035105	0.0449818	-0.407467	0.388749	0.846239	1.5708	0	0	0.135807	-0.267681	0.722596	0.567614	1.5708	0	0
0.01	2.70939	1.43995	-1.15756	0.716251	-0.22673	0.938526	-0.071939	0.0209828	0.156189	0.416961	-0.116239	0	0	-0.150451	-0.105434	-0.0931757	0.237393	-0.16398	0	0	-0.204506	0.121512	0.0353185	0.0490202	-0.400765	0.428725	0.808149	1.5708	0	0	0.137344	-0.264707	0.748602	0.54291	1.5708	0	0
0.02	2.72456	1.43261	-1.17489	0.716038	-0.226102	0.938693	-0.081532	0.0205376	0.1552	0.415166	-0.116072	0	0	-0.11931	-0.134068	-0.200912	0.339721	-0.147441	0	0	-0.211257	0.123546	0.0360664	0.0435487	-0.399174	0.444762	0.79677	1.5708	0	0	0.131772	-0.25992	0.74593	0.533253	1.5708	0	0
0.03	2.73184	1.4297	-1.18285	0.716209	-0.225669	0.938746	-0.0854982	0.0206915	0.155303	0.415166	-0.115186	0	0	-0.124783	-0.133699	-0.200221	0.336736	-0.144434	0	0	-0.213635	0.124131	0.0363063	0.0378386	-0.39553	0.45756	0.785382	1.5708	0	0	0.12642	-0.255496	0.7389	0.524454	1.5708	0	0
0.04	2.74527	1.42534	-1.19639	0.716335	-0.22531	0.93897	-0.091774	0.0205548	0.155098	0.413842	-0.11475	0	0	-0.133389	-0.132141	-0.195875	0.329786	-0.144611	0	0	-0.217747	0.124561	0.0353979	0.0334403	-0.392369	0.471056	0.77632	1.5708	0	0	0.120278	-0.251196	0.725317	0.518848	1.5708	0	0
0.05	2.75984	1.42016	-1.21077	0.716477	-0.225002	0.939265	-0.0991716	0.0205359	0.154837	0.411951	-0.114792	0	0	-0.143148	-0.130437	-0.19049	0.321873	-0.145854	0	0	-0.222559	0.125074	0.0337082	0.0301764	-0.389342	0.485539	0.769049	1.5708	0	0	0.11354	-0.247368	0.70822	0.516104	1.5708	0	0
0.06	2.76531	1.41772	-1.21654	0.71661	-0.22454	0.939395	-0.103074	0.0207875	0.155154	0.410835	-0.114965	0	0	-0.149911	-0.1288	-0.185115	0.313904	-0.147106	0	0	-0.224403	0.124887	0.034907	0.0249242	-0.385765	0.495564	0.762418	1.5708	0	0	0.107615	-0.243271	0.691336	0.514941	1.5708	0	0
0.07	2.77072	1.41502	-1.22256	0.716729	-0.224146	0.939554	-0.106903	0.0210654	0.155659	0.410268	-0.1148	0	0	-0.157358	-0.126919	-0.179211	0.304714	-0.148646	0	0	-0.226068	0.125085	0.0357983	0.0208217	-0.382368	0.504615	0.756519	1.5708	0	0	0.101345	-0.238649	0.671444	0.515074	1.5708	0	0
0.08	2.77759	1.41267	-1.22984	0.716846	-0.223775	0.939684	-0.110553	0.0206805	0.155803	0.409491	-0.114588	0	0	-0.164519	-0.124581	-0.172555	0.295322	-0.150334	0	0	-0.227335	0.125056	0.0367275	0.0164724	-0.378715	0.509365	0.751967	1.5708	0	0	0.0951659	-0.23389	0.649704	0.516908	1.5708	0	0
0.09	2.78435	1.41151	-1.2371	0.716905	-0.223425	0.939719	-0.112774	0.0198421	0.156249	0.409112	-0.114209	0	0	-0.169902	-0.1219	-0.166524	0.287343	-0.151667	0	0	-0.226984	0.124793	0.0381543	0.0106983	-0.374628	0.508432	0.74943	1.5708	0	0	0.089874	-0.229394	0.630239	0.519615	1.5708	0	0
0.1	2.79245	1.41087	-1.24597	0.716913	-0.22316	0.939692	-0.114214	0.0186341	0.157302	0.409303	-0.113409	0	0	-0.174693	-0.118721	-0.160535	0.279607	-0.153153	0	0	-0.226239	0.124359	0.0398615	0.00540587	-0.370671	0.505701	0.748156	1.5708	0	0	0.0849986	-0.224866	0.610099	0.523529	1.5708	0	0
0.11	2.79773	1.41084	-1.25233	0.717016	-0.222935	0.939656	-0.114451	0.0177087	0.157761	0.409905	-0.11268	0	0	-0.178379	-0.116123	-0.155635	0.272632	-0.154739	0	0	-0.22455	0.123608	0.0418138	0.00161699	-0.366057	0.502464	0.745891	1.5708	0	0	0.0810972	-0.220602	0.591001	0.527222	1.5708	0	0
0.12	2.7977	1.41108	-1.2536	0.717114	-0.222737	0.939635	-0.113689	0.0174646	0.157526	0.411133	-0.112428	0	0	-0.181078	-0.114542	-0.151942	0.266696	-0.156176	0	0	-0.223804	0.124103	0.0419784	0.000758408	-0.361828	0.500311	0.744417	1.5708	0	0	0.076554	-0.21682	0.570707	0.532226	1.5708	0	0
0.13	2.79732	1.41005	-1.25431	0.717199	-0.222595	0.939679	-0.114157	0.0178495	0.15732	0.41252	-0.112206	0	0	-0.184527	-0.113796	-0.149498	0.261908	-0.157357	0	0	-0.224869	0.124984	0.0419349	0.0015517	-0.358063	0.498567	0.743546	1.5708	0	0	0.0723993	-0.212395	0.548921	0.536742	1.5708	0	0
0.14	2.80103	1.40719	-1.25883	0.717352	-0.222538	0.939846	-0.116865	0.0182202	0.156854	0.413547	-0.111987	0	0	-0.189832	-0.113256	-0.147513	0.25734	-0.158717	0	0	-0.228898	0.125565	0.0415193	0.00388543	-0.354465	0.496743	0.743637	1.5708	0	0	0.0680178	-0.207256	0.521246	0.542085	1.5708	0	0
0.15	2.80565	1.40368	-1.26484	0.717647	-0.222571	0.940066	-0.120396	0.0189138	0.158701	0.414118	-0.111727	0	0	-0.195515	-0.113022	-0.147017	0.253648	-0.159948	0	0	-0.233825	0.125501	0.0420427	0.00742992	-0.350754	0.495645	0.743201	1.5708	0	0	0.0649861	-0.203125	0.497427	0.54765	1.5708	0	0
0.16	2.80106	1.40455	-1.26075	0.71784	-0.222248	0.940072	-0.119765	0.0198971	0.160836	0.413797	-0.111691	0	0	-0.196015	-0.113137	-0.145497	0.250683	-0.160977	0	0	-0.234876	0.126329	0.0364457	0.0132852	-0.346246	0.496263	0.742631	1.5708	0	0	0.0585122	-0.200692	0.47298	0.55506	1.5708	0	0
0.17	2.79483	1.4051	-1.25448	0.717921	-0.221937	0.940067	-0.119313	0.0208255	0.161804	0.413533	-0.112029	0	0	-0.196503	-0.113688	-0.143563	0.248123	-0.161784	0	0	-0.23583	0.12816	0.0282073	0.0217057	-0.342191	0.501154	0.741154	1.5708	0	0	0.0507103	-0.197002	0.442084	0.562329	1.57074	0	0
0.18	2.78826	1.40482	-1.24783	0.717985	-0.221681	0.940107	-0.119755	0.0220432	0.162602	0.412884	-0.112827	0	0	-0.197548	-0.114674	-0.142202	0.246138	-0.162164	0	0	-0.237638	0.130421	0.020373	0.0305117	-0.338314	0.506297	0.739504	1.5708	0	0	0.0443451	-0.193777	0.414487	0.569131	1.56957	0	0
0.19	2.78766	1.40446	-1.24694	0.718045	-0.221385	0.940121	-0.120812	0.0221505	0.162615	0.412092	-0.113236	0	0	-0.198876	-0.114806	-0.141205	0.244473	-0.162459	0	0	-0.239462	0.131724	0.0135563	0.0382764	-0.33414	0.509317	0.737985	1.5708	0	0	0.0400901	-0.19161	0.394088	0.575022	1.56911	0	0
